<svg xmlns="http://www.w3.org/2000/svg" version="1.1" xmlns:xlink="http://www.w3.org/1999/xlink" xmlns:svgjs="http://svgjs.com/svgjs" width="1440" height="200" preserveAspectRatio="none" viewBox="0 0 1440 200"><g mask="url(&quot;#SvgjsMask1021&quot;)" fill="#C0D8FF"><rect width="1440" height="200" x="0" y="0" fill="#C0D8FF"></rect><path d="M1649.81 178.63C1551.79 178.17 1463.28 97.82 1266.38 96.63 1069.49 95.44 981.86-0.12 882.96-0.88" stroke="rgba(179, 122, 9, 1)" stroke-width="2"></path><path d="M1727.83 114.78C1548.07 114.8 1370.82 160.96 1010.27 160.78 649.72 160.6 478.2-26.42 292.71-27.99" stroke="rgba(179, 122, 9, 1)" stroke-width="2"></path><path d="M1642.75 51.07C1459.54 51.11 1186.43 107.09 912.04 107.07 637.64 107.05 642.3-4.94 546.68-6.23" stroke="rgba(179, 122, 9, 1)" stroke-width="2"></path><path d="M1460.3 64.29C1288.32 64.42 1033.67 142.32 776.83 142.29 519.99 142.26 527.8 0.73 435.09-2.2" stroke="rgba(179, 122, 9, 1)" stroke-width="2"></path><path d="M1564.03 30.35C1398.34 30.41 1234.12 88.36 903.8 88.35 573.49 88.34 410.69-15.73 243.58-16.05" stroke="rgba(179, 122, 9, 1)" stroke-width="2"></path></g><defs><mask id="SvgjsMask1021"><rect width="1440" height="200" fill="#ffffff"></rect></mask></defs></svg>