<svg xmlns="http://www.w3.org/2000/svg" version="1.1" xmlns:xlink="http://www.w3.org/1999/xlink" xmlns:svgjs="http://svgjs.dev/svgjs" width="1100" height="500" preserveAspectRatio="none" viewBox="0 0 1100 500"><g mask="url(&quot;#SvgjsMask1077&quot;)" fill="none"><rect width="1100" height="500" x="0" y="0" fill="rgba(192, 216, 255, 1)"></rect><path d="M 0,72 C 73.4,85.2 220.2,149.8 367,138 C 513.8,126.2 587.4,-9.4 734,13 C 880.6,35.4 1026.8,202.6 1100,250L1100 500L0 500z" fill="rgba(179, 122, 9, 1)"></path><path d="M 0,391 C 73.4,366.4 220.2,253.2 367,268 C 513.8,282.8 587.4,459.6 734,465 C 880.6,470.4 1026.8,329 1100,295L1100 500L0 500z" fill="rgba(255, 181, 33, 1)"></path></g><defs><mask id="SvgjsMask1077"><rect width="1100" height="500" fill="#ffffff"></rect></mask></defs></svg>

            <svg xmlns="http://www.w3.org/2000/svg" version="1.1" xmlns:xlink="http://www.w3.org/1999/xlink"
                xmlns:svgjs="http://svgjs.dev/svgjs" width="1100" height="500" preserveAspectRatio="none"
                viewBox="0 0 1100 500">
                <g mask="url(&quot;#SvgjsMask1077&quot;)" fill="none">
                    <rect width="1100" height="500" x="0" y="0" fill="rgba(192, 216, 255, 1)"></rect>
                    <path
                        d="M 0,159 C 73.4,400 220.2,400 367,400 C 513.8,300 587.4,300 734,250 C 880.6,200 1026.8,200 1100,250L1100 500L0 500z"
                        fill="rgba(179, 122, 9, 1)"></path>
                    <path
                        d="M 0,391 C 73.4,400 220.2,300 367,300 C 513.8,282.8 587.4,459.6 734,465 C 880.6,470.4 1026.8,329 1100,295L1100 500L0 500z"
                        fill="rgba(255, 181, 33, 1)"></path>
                </g>
                <defs>
                    <mask id="SvgjsMask1077">
                        <rect width="1100" height="500" fill="#ffffff"></rect>
                    </mask>
                </defs>
            </svg>